<svg xmlns="http://www.w3.org/2000/svg" width="60" height="60" viewBox="0 0 60 60" fill="none">
  <!-- 8-pointed star tessellation tile -->
  <path d="M30,8 L33.8,20.8 L45.6,14.4 L39.2,26.2 L52,30 L39.2,33.8 L45.6,45.6 L33.8,39.2 L30,52 L26.2,39.2 L14.4,45.6 L20.8,33.8 L8,30 L20.8,26.2 L14.4,14.4 L26.2,20.8 Z" stroke="#C8A44A" stroke-width="0.6"/>
  <!-- Inner octagon -->
  <polygon points="30,20 36,22 40,27 40,33 36,38 30,40 24,38 20,33 20,27 24,22" stroke="#C8A44A" stroke-width="0.4"/>
  <!-- Corner quarter-stars for seamless tiling -->
  <path d="M0,0 L3.8,10.8 L0,14.4" stroke="#C8A44A" stroke-width="0.4"/>
  <path d="M60,0 L56.2,10.8 L60,14.4" stroke="#C8A44A" stroke-width="0.4"/>
  <path d="M0,60 L3.8,49.2 L0,45.6" stroke="#C8A44A" stroke-width="0.4"/>
  <path d="M60,60 L56.2,49.2 L60,45.6" stroke="#C8A44A" stroke-width="0.4"/>
  <!-- Edge connection lines -->
  <line x1="30" y1="0" x2="30" y2="8" stroke="#C8A44A" stroke-width="0.4"/>
  <line x1="30" y1="52" x2="30" y2="60" stroke="#C8A44A" stroke-width="0.4"/>
  <line x1="0" y1="30" x2="8" y2="30" stroke="#C8A44A" stroke-width="0.4"/>
  <line x1="52" y1="30" x2="60" y2="30" stroke="#C8A44A" stroke-width="0.4"/>
</svg>
